<svg id="svg" version="1.1" xmlns="http://www.w3.org/2000/svg" xmlns:xlink="http://www.w3.org/1999/xlink" width="400" height="400" viewBox="0, 0, 400,400"><g id="svgg"><path id="path0" d="M0.000 200.000 L 0.000 400.000 200.000 400.000 L 400.000 400.000 400.000 200.000 L 400.000 0.000 200.000 0.000 L 0.000 0.000 0.000 200.000 M237.402 114.393 C 236.998 115.666,237.647 120.790,238.294 121.437 C 239.133 122.276,238.255 123.200,236.618 123.200 L 235.334 123.200 235.512 121.052 C 235.770 117.940,234.975 117.783,234.141 120.781 C 233.268 123.922,232.506 123.971,230.729 121.000 C 230.005 119.790,229.286 118.800,229.132 118.800 C 228.703 118.800,229.255 121.690,229.865 122.632 C 230.530 123.661,230.224 124.001,228.633 123.998 L 227.400 123.996 227.339 120.544 C 227.304 118.595,227.051 116.669,226.757 116.120 C 226.320 115.304,226.330 115.089,226.818 114.780 C 228.297 113.845,229.135 114.350,230.828 117.200 C 232.844 120.594,232.587 120.603,233.626 117.100 C 234.711 113.439,234.591 113.600,236.251 113.600 C 237.468 113.600,237.621 113.705,237.402 114.393 M249.063 114.258 C 250.275 114.466,251.069 115.641,250.557 116.469 C 250.235 116.991,249.307 116.855,249.076 116.253 C 248.663 115.178,246.781 115.199,246.368 116.284 C 245.787 117.814,247.113 118.727,248.257 117.583 C 248.984 116.856,249.524 118.044,249.130 119.500 C 248.780 120.791,248.000 121.306,248.000 120.247 C 248.000 119.669,246.504 119.088,245.931 119.443 C 245.749 119.555,245.600 120.154,245.600 120.774 C 245.600 122.222,247.665 122.827,248.875 121.732 C 249.943 120.766,250.597 121.531,249.938 122.977 C 249.477 123.988,249.307 124.055,247.818 123.817 C 246.928 123.675,245.435 123.453,244.500 123.325 C 242.897 123.105,242.034 121.944,243.169 121.533 C 243.657 121.356,244.374 116.042,244.101 114.615 L 243.886 113.492 245.843 113.766 C 246.919 113.917,248.368 114.138,249.063 114.258 M219.638 118.219 C 223.235 120.080,223.251 125.335,219.665 127.037 C 217.221 128.197,214.672 127.261,213.359 124.721 C 211.305 120.749,215.710 116.188,219.638 118.219 M216.120 119.634 C 213.642 120.551,215.395 125.700,218.186 125.700 C 219.841 125.700,220.513 124.857,220.274 123.077 C 219.939 120.575,217.975 118.948,216.120 119.634 M267.452 120.812 C 267.718 121.078,267.748 122.072,267.537 123.620 C 267.356 124.938,267.149 127.047,267.075 128.308 C 266.924 130.904,266.347 131.338,264.765 130.045 C 263.991 129.413,263.899 129.156,264.300 128.748 C 265.100 127.935,264.880 126.819,263.826 126.339 C 262.581 125.772,261.600 126.146,261.600 127.187 C 261.600 128.091,261.132 128.206,259.974 127.586 C 258.993 127.061,258.980 126.146,259.946 125.629 C 260.356 125.409,261.993 124.143,263.582 122.815 C 266.651 120.251,266.809 120.169,267.452 120.812 M206.954 125.206 C 207.344 126.089,208.571 127.744,209.681 128.883 L 211.700 130.956 210.550 131.876 C 209.166 132.983,208.800 133.028,208.800 132.089 C 208.800 130.044,207.180 129.172,205.614 130.375 C 204.549 131.194,205.021 133.200,206.280 133.200 C 207.278 133.200,207.316 134.377,206.343 135.188 C 205.149 136.183,204.400 136.210,204.400 135.259 C 204.400 134.183,200.769 129.600,199.917 129.600 C 199.032 129.600,198.998 129.059,199.831 128.226 C 201.325 126.732,202.400 126.633,202.400 127.990 C 202.400 129.676,203.390 130.204,204.744 129.240 C 206.319 128.118,206.326 127.486,204.774 126.381 L 203.547 125.508 204.443 124.554 C 205.684 123.233,206.136 123.350,206.954 125.206 M264.403 123.989 C 263.918 124.296,263.902 124.462,264.320 124.880 C 264.738 125.298,264.904 125.282,265.211 124.797 C 265.940 123.642,265.558 123.260,264.403 123.989 M277.265 130.652 L 277.131 134.187 278.020 133.393 C 278.510 132.957,279.158 132.015,279.461 131.300 C 280.121 129.740,280.380 129.702,281.590 130.990 C 282.475 131.931,282.483 131.991,281.760 132.232 C 281.342 132.371,279.816 133.756,278.369 135.309 C 274.985 138.942,274.606 138.779,274.985 133.847 L 275.265 130.200 273.833 131.578 C 273.045 132.337,272.400 133.271,272.400 133.655 C 272.400 134.886,271.509 134.975,270.534 133.842 C 269.415 132.541,269.351 132.000,270.315 132.000 C 271.229 132.000,274.621 128.556,275.184 127.056 C 276.174 124.419,277.421 126.573,277.265 130.652 M182.667 132.100 C 184.608 133.427,185.069 134.826,184.181 136.697 C 179.285 147.011,175.370 155.927,175.642 156.143 C 175.729 156.212,177.060 156.126,178.600 155.953 C 180.140 155.781,183.110 155.520,185.200 155.375 L 189.000 155.112 190.131 156.310 C 192.668 158.999,191.528 160.035,185.220 160.774 C 176.430 161.805,174.570 162.043,173.803 162.235 C 172.940 162.451,172.381 163.748,168.856 173.700 C 168.070 175.920,167.985 176.194,166.016 182.800 C 163.787 190.284,163.248 190.821,160.613 188.187 C 158.539 186.112,158.548 186.060,163.807 170.204 C 166.230 162.897,166.234 163.187,163.709 163.679 C 162.659 163.883,160.900 164.209,159.800 164.402 C 158.700 164.595,156.810 164.931,155.600 165.148 C 154.390 165.365,152.140 165.765,150.600 166.038 C 147.123 166.652,147.092 166.680,145.614 170.701 C 144.946 172.515,143.848 175.485,143.174 177.300 C 141.732 181.180,141.431 182.073,139.167 189.200 C 138.121 192.496,137.477 195.253,137.516 196.275 C 137.619 198.955,135.295 203.200,133.724 203.200 C 130.772 203.200,129.845 199.247,131.543 193.900 C 132.812 189.904,134.022 185.959,134.396 184.600 C 134.737 183.363,137.178 176.333,138.978 171.402 C 139.540 169.863,140.000 168.538,140.000 168.457 C 140.000 168.174,133.937 169.446,128.754 170.817 C 125.937 171.563,124.266 171.312,122.856 169.933 C 119.840 166.984,121.090 166.330,135.400 163.366 C 137.160 163.002,139.320 162.553,140.200 162.369 C 141.080 162.185,141.944 162.027,142.120 162.017 C 142.297 162.008,142.720 161.325,143.062 160.500 C 143.403 159.675,144.008 158.280,144.406 157.400 C 144.804 156.520,145.667 154.450,146.325 152.800 C 147.474 149.918,149.724 144.929,151.874 140.500 C 153.132 137.909,154.124 137.751,156.187 139.813 C 157.908 141.535,157.913 141.699,156.354 145.090 C 153.704 150.852,153.228 151.919,151.639 155.649 C 150.738 157.765,150.000 159.670,150.000 159.882 C 150.000 160.259,151.108 160.149,156.600 159.230 C 157.920 159.009,160.170 158.644,161.600 158.418 C 167.151 157.542,168.421 157.311,168.544 157.158 C 168.615 157.071,169.528 154.840,170.574 152.200 C 172.916 146.286,173.437 145.115,178.212 135.013 C 179.409 132.482,180.354 131.269,181.175 131.212 C 181.272 131.205,181.943 131.605,182.667 132.100 M287.332 138.100 C 289.926 141.565,290.280 144.026,288.476 146.045 C 286.004 148.812,282.268 147.910,279.763 143.941 C 278.612 142.118,278.558 141.600,279.520 141.600 C 280.588 141.600,285.266 138.435,285.495 137.557 C 285.777 136.482,286.219 136.612,287.332 138.100 M284.062 141.483 C 281.388 143.297,281.158 143.861,282.589 145.092 C 285.007 147.172,288.831 144.171,287.588 141.171 C 286.973 139.687,286.670 139.714,284.062 141.483 M297.153 158.577 C 298.451 163.736,296.996 166.600,293.075 166.600 C 289.789 166.600,288.093 164.581,287.890 160.426 C 287.805 158.694,287.852 158.606,288.800 158.716 C 290.433 158.906,295.118 157.980,295.627 157.368 C 296.383 156.456,296.677 156.689,297.153 158.577 M213.086 159.393 C 215.190 161.814,215.367 165.966,213.626 172.100 C 213.392 172.925,213.035 174.185,212.833 174.900 C 212.631 175.615,211.896 178.090,211.200 180.400 C 210.011 184.344,209.753 185.230,208.835 188.500 C 208.635 189.215,208.021 191.330,207.472 193.200 C 206.923 195.070,206.361 197.148,206.223 197.819 L 205.972 199.037 211.686 199.019 C 218.161 198.998,219.595 199.370,220.537 201.316 C 221.671 203.656,220.984 204.074,216.477 203.785 C 212.935 203.558,205.044 204.022,204.581 204.485 C 203.891 205.175,202.345 213.408,201.156 222.720 L 200.681 226.439 201.941 227.739 C 204.571 230.453,203.085 232.422,199.681 230.733 C 195.467 228.642,194.659 223.737,196.660 212.400 C 197.743 206.261,197.762 206.000,197.116 206.000 C 195.108 206.000,182.215 209.335,176.000 211.461 L 173.800 212.214 170.985 217.807 C 166.975 225.775,164.043 232.954,160.959 242.358 C 159.027 248.248,158.722 248.800,157.405 248.800 C 155.269 248.800,153.337 246.258,153.974 244.287 C 157.567 233.171,158.620 230.126,159.813 227.400 C 160.101 226.740,160.726 225.213,161.200 224.007 C 161.674 222.801,162.473 220.911,162.976 219.807 C 164.166 217.194,164.530 216.000,164.135 216.000 C 163.470 216.000,147.647 224.050,144.400 226.040 C 140.578 228.383,138.682 228.738,137.185 227.391 C 134.890 225.326,135.358 224.281,139.687 221.805 C 141.509 220.763,143.619 219.554,144.375 219.120 C 146.193 218.075,153.726 214.296,156.000 213.289 C 156.990 212.850,158.700 212.085,159.800 211.589 C 160.900 211.092,163.240 210.166,164.999 209.529 C 168.672 208.202,168.672 208.201,170.409 205.000 C 181.740 184.123,204.887 157.282,210.800 158.164 C 211.611 158.285,212.573 158.802,213.086 159.393 M292.000 160.478 C 289.764 160.966,289.432 161.275,289.756 162.566 C 290.646 166.114,296.000 164.965,296.000 161.226 C 296.000 159.842,295.417 159.733,292.000 160.478 M205.354 168.900 C 198.323 175.471,180.077 199.164,178.120 204.265 C 177.829 205.024,178.180 204.976,183.200 203.573 C 184.850 203.112,187.460 202.476,189.000 202.160 C 190.540 201.844,192.520 201.418,193.400 201.212 C 199.920 199.691,199.260 200.146,200.237 196.500 C 201.422 192.081,201.992 190.066,203.209 186.000 C 203.900 183.690,204.641 181.170,204.855 180.400 C 205.070 179.630,205.399 178.460,205.588 177.800 C 206.081 176.075,207.109 172.338,207.763 169.900 C 208.072 168.745,208.451 167.485,208.606 167.100 C 209.132 165.785,208.041 166.389,205.354 168.900 M296.413 172.207 C 298.412 173.240,299.299 175.835,298.433 178.112 C 297.265 181.186,292.791 181.945,290.461 179.465 C 286.682 175.442,291.443 169.637,296.413 172.207 M292.836 173.982 C 292.306 174.113,291.513 174.699,291.075 175.287 C 289.386 177.548,292.832 179.696,295.844 178.259 C 299.066 176.723,296.504 173.082,292.836 173.982 M289.762 185.016 C 290.346 185.815,295.403 187.651,296.189 187.349 C 297.007 187.035,297.411 188.219,296.881 189.381 C 296.507 190.203,296.079 190.345,293.229 190.597 C 289.394 190.937,289.397 190.927,292.200 193.347 C 293.410 194.391,294.400 195.561,294.400 195.947 C 294.400 196.900,293.214 198.353,292.950 197.724 C 292.689 197.104,286.544 195.059,285.799 195.345 C 284.911 195.686,284.700 194.932,285.255 193.398 C 285.790 191.919,286.282 191.627,286.645 192.572 C 286.765 192.887,287.417 193.337,288.092 193.572 C 290.473 194.402,290.615 194.046,288.685 192.086 C 285.963 189.322,286.205 188.800,290.209 188.800 C 291.388 188.800,292.450 188.642,292.569 188.450 C 292.822 188.041,289.772 187.160,288.600 187.303 C 287.693 187.413,287.636 185.280,288.530 184.711 C 289.179 184.299,289.251 184.317,289.762 185.016 M261.800 198.147 C 280.208 202.128,279.026 222.579,259.366 240.244 C 249.855 248.790,235.936 257.442,225.028 261.589 C 224.314 261.861,224.020 262.313,223.927 263.280 C 223.754 265.078,221.967 265.316,220.200 263.777 C 218.858 262.608,218.643 259.822,219.601 256.010 C 219.851 255.015,220.244 253.390,220.474 252.400 C 223.505 239.345,230.921 225.441,240.044 215.707 C 241.977 213.644,242.858 213.578,244.640 215.360 C 246.572 217.292,246.409 217.849,242.562 222.470 C 234.937 231.631,229.372 241.820,226.582 251.730 C 225.697 254.872,225.613 254.874,231.834 251.626 C 254.971 239.546,272.698 219.479,269.932 208.497 C 267.503 198.850,241.953 202.133,221.982 214.657 C 217.982 217.165,217.849 217.184,215.869 215.553 C 212.755 212.986,215.180 210.548,226.086 205.282 C 233.049 201.920,244.297 198.478,248.706 198.360 C 249.528 198.338,250.650 198.176,251.200 198.000 C 252.790 197.491,259.175 197.579,261.800 198.147 M283.383 199.500 C 283.669 200.343,288.398 203.600,289.336 203.600 C 290.429 203.600,289.233 206.394,286.959 209.148 C 286.575 209.613,284.800 208.690,284.800 208.025 C 284.800 207.588,284.205 206.897,283.400 206.400 C 281.732 205.369,281.648 204.914,283.029 204.389 C 284.192 203.947,284.213 202.938,283.075 202.243 C 282.100 201.647,280.643 203.319,280.977 204.650 C 281.290 205.899,280.481 206.259,279.519 205.297 C 278.597 204.375,278.753 203.918,281.089 200.700 C 282.581 198.645,283.016 198.417,283.383 199.500 M285.067 204.667 C 284.587 205.146,284.787 207.109,285.336 207.320 C 286.442 207.744,287.935 205.885,287.200 205.000 C 286.685 204.379,285.534 204.200,285.067 204.667 " stroke="none" fill="#f3f3f3" fill-rule="evenodd"></path><path id="path1" d="M180.111 132.500 C 179.441 133.365,174.419 144.351,171.928 150.400 C 168.947 157.640,168.799 157.868,166.916 158.157 C 166.082 158.285,162.087 158.932,158.037 159.595 C 149.840 160.937,149.200 160.992,149.200 160.355 C 149.200 159.893,152.853 151.326,155.365 145.898 C 156.154 144.192,156.800 142.429,156.800 141.980 C 156.800 140.199,153.754 138.406,152.928 139.700 C 152.285 140.707,148.646 148.773,145.936 155.200 C 142.608 163.092,143.325 162.287,138.749 163.253 C 120.974 167.003,120.754 167.092,123.231 169.569 C 124.778 171.117,124.813 171.115,132.999 169.215 C 137.376 168.199,139.935 167.775,140.184 168.024 C 140.433 168.273,139.812 170.581,138.439 174.506 C 135.772 182.126,131.266 196.528,130.956 198.423 C 130.693 200.027,132.255 202.400,133.574 202.400 C 135.067 202.400,137.267 198.374,136.940 196.236 C 136.589 193.931,145.931 166.603,147.209 166.197 C 148.068 165.924,165.248 162.800,165.889 162.800 C 166.742 162.800,166.520 163.716,163.218 173.844 C 159.166 186.271,159.230 185.919,160.730 187.525 C 163.221 190.191,163.194 190.234,167.005 177.600 C 167.963 174.425,171.074 165.624,172.131 163.100 C 172.477 162.275,173.030 161.600,173.361 161.600 C 174.522 161.600,190.170 159.542,190.483 159.349 C 191.662 158.620,189.332 155.600,187.591 155.600 C 187.060 155.600,184.251 155.896,181.350 156.257 C 174.708 157.084,174.560 157.039,175.567 154.484 C 176.729 151.534,180.703 142.624,182.448 139.052 C 184.298 135.268,184.354 134.488,182.878 133.075 C 181.661 131.909,180.720 131.713,180.111 132.500 M208.400 159.288 C 198.775 165.301,182.628 184.891,171.746 203.760 L 169.000 208.521 163.748 210.606 C 151.651 215.408,136.245 223.716,136.476 225.313 C 136.583 226.057,138.829 228.000,139.582 228.000 C 139.727 228.000,142.085 226.709,144.823 225.131 C 149.956 222.172,163.944 215.200,164.747 215.200 C 165.505 215.200,165.270 216.137,163.604 219.742 C 160.608 226.228,156.106 238.539,154.775 243.888 C 154.198 246.205,154.704 247.273,156.749 248.055 C 158.203 248.611,158.565 248.040,160.402 242.287 C 164.771 228.605,172.212 212.372,174.567 211.388 C 179.574 209.296,197.427 204.867,198.108 205.548 C 198.322 205.762,198.140 207.589,197.657 210.054 C 195.170 222.767,195.695 228.180,199.612 230.206 C 202.515 231.707,203.886 230.300,201.549 228.218 L 200.298 227.103 200.571 223.651 C 201.042 217.695,203.138 205.795,203.945 204.489 C 204.452 203.668,208.269 203.200,214.455 203.200 C 219.944 203.200,220.400 203.144,220.400 202.470 C 220.400 200.162,216.054 199.013,209.100 199.483 L 205.600 199.720 205.600 198.615 C 205.600 197.640,207.395 191.182,211.274 178.200 C 215.211 165.022,215.284 160.905,211.613 159.007 C 210.124 158.237,210.076 158.241,208.400 159.288 M209.193 166.300 C 209.182 167.490,200.053 199.587,199.538 200.248 C 199.345 200.495,198.516 200.796,197.694 200.918 C 194.733 201.358,188.096 202.853,182.877 204.256 C 175.736 206.175,175.790 206.469,181.644 197.572 C 192.221 181.499,209.232 162.189,209.193 166.300 M246.651 199.239 C 236.542 200.997,226.712 204.836,217.989 210.431 C 214.464 212.693,214.265 213.126,215.969 214.831 C 217.528 216.389,218.302 216.312,221.496 214.278 C 233.488 206.642,248.543 202.045,260.200 202.458 C 283.683 203.291,265.578 234.996,231.737 252.304 C 225.192 255.651,225.600 255.536,225.600 254.036 C 225.600 247.894,235.146 229.670,242.595 221.590 C 246.051 217.842,246.175 216.781,243.373 214.945 C 242.140 214.137,240.797 215.261,236.612 220.600 C 227.475 232.258,221.974 244.972,219.436 260.298 C 218.994 262.968,222.933 265.833,223.456 263.220 C 223.750 261.750,224.421 261.176,227.200 260.017 C 257.597 247.337,279.820 221.873,273.318 207.173 C 269.940 199.536,260.717 196.792,246.651 199.239 " stroke="none" fill="#fc5757" fill-rule="evenodd"></path><path id="path2" d="M235.062 114.731 C 234.188 115.697,234.227 116.279,235.200 116.800 C 235.873 117.160,236.000 117.638,236.000 119.814 C 236.000 122.263,236.050 122.400,236.941 122.400 C 237.877 122.400,237.879 122.387,237.350 120.345 C 237.057 119.215,236.785 117.325,236.747 116.145 C 236.672 113.852,236.209 113.464,235.062 114.731 M244.800 115.444 C 244.799 116.080,244.548 117.917,244.241 119.526 L 243.683 122.451 244.668 122.826 C 245.975 123.323,247.713 123.306,247.400 122.800 C 247.264 122.580,246.695 122.400,246.134 122.400 C 245.166 122.400,245.128 122.317,245.353 120.700 C 245.483 119.765,245.585 118.248,245.578 117.329 C 245.570 116.224,245.777 115.541,246.189 115.310 C 247.112 114.794,249.600 115.183,249.600 115.844 C 249.600 116.150,249.780 116.400,250.000 116.400 C 250.220 116.400,250.397 116.265,250.394 116.100 C 250.375 115.173,249.464 114.712,247.256 114.512 L 244.800 114.289 244.800 115.444 M227.206 115.700 C 227.214 116.334,227.806 117.284,228.153 117.219 C 228.880 117.083,232.000 121.307,232.000 122.427 C 232.000 123.083,232.757 122.827,233.186 122.026 C 233.781 120.915,233.697 120.347,232.958 120.482 C 232.533 120.560,231.767 119.687,230.694 117.900 C 229.149 115.327,227.186 114.089,227.206 115.700 M247.422 118.390 L 246.244 118.600 247.373 119.115 C 248.595 119.671,248.947 119.569,248.735 118.721 C 248.644 118.356,248.217 118.249,247.422 118.390 M215.774 118.843 C 215.592 119.136,215.768 119.200,216.297 119.033 C 219.190 118.114,222.227 123.361,220.138 125.669 C 219.774 126.071,219.644 126.400,219.849 126.400 C 221.901 126.400,222.441 121.522,220.602 119.602 C 219.389 118.336,216.379 117.863,215.774 118.843 M227.940 121.121 C 227.822 123.203,227.905 123.601,228.451 123.601 C 228.989 123.600,229.067 123.271,228.899 121.700 C 228.576 118.663,228.094 118.373,227.940 121.121 M214.201 119.999 C 212.882 121.456,213.252 124.326,214.959 125.891 C 216.388 127.200,218.464 127.667,219.000 126.800 C 219.136 126.580,218.870 126.400,218.410 126.400 C 215.802 126.400,212.714 120.669,214.900 119.888 C 215.175 119.790,215.294 119.594,215.164 119.452 C 215.035 119.311,214.601 119.557,214.201 119.999 M265.917 121.455 C 265.421 121.950,265.365 122.275,265.686 122.789 C 266.195 123.603,265.548 125.855,264.850 125.700 C 264.603 125.645,264.400 125.780,264.400 126.000 C 264.400 126.220,264.568 126.400,264.773 126.400 C 265.416 126.400,265.691 128.008,265.159 128.650 C 264.746 129.148,264.758 129.328,265.226 129.624 C 266.173 130.224,266.221 130.128,266.720 126.679 C 267.523 121.122,267.354 120.018,265.917 121.455 M248.800 122.600 C 248.392 123.091,248.420 123.200,248.951 123.200 C 249.308 123.200,249.600 122.930,249.600 122.600 C 249.600 122.270,249.532 122.000,249.449 122.000 C 249.366 122.000,249.074 122.270,248.800 122.600 M261.772 125.000 C 260.931 125.770,260.063 126.400,259.842 126.400 C 259.618 126.400,259.654 126.614,259.924 126.884 C 260.302 127.262,260.542 127.175,261.026 126.484 C 261.367 125.998,262.066 125.600,262.580 125.600 C 263.326 125.600,263.504 125.398,263.458 124.600 C 263.387 123.383,263.589 123.335,261.772 125.000 M204.864 124.752 C 204.445 125.018,204.554 125.318,205.364 126.128 C 206.603 127.367,206.696 128.609,205.600 129.293 C 205.160 129.568,204.800 129.961,204.800 130.166 C 204.800 130.371,205.241 130.125,205.780 129.619 C 206.952 128.518,207.772 128.733,208.715 130.391 C 209.092 131.053,209.614 131.596,209.876 131.597 C 210.793 131.602,210.807 130.844,209.908 129.914 C 208.372 128.327,206.742 126.245,206.296 125.300 C 205.830 124.313,205.660 124.247,204.864 124.752 M276.000 127.111 C 276.000 127.370,274.778 128.849,273.285 130.396 C 271.498 132.248,270.705 133.345,270.965 133.605 C 271.567 134.207,272.000 134.078,272.000 133.298 C 272.000 132.358,275.174 129.014,275.632 129.472 C 275.838 129.678,275.823 130.825,275.595 132.213 C 275.381 133.526,275.211 135.320,275.220 136.200 L 275.235 137.800 277.917 134.895 C 279.393 133.298,280.825 131.993,281.100 131.995 C 281.813 132.002,281.719 131.331,280.967 131.043 C 280.089 130.706,280.000 130.730,280.000 131.309 C 280.000 131.960,277.672 134.800,277.138 134.800 C 276.887 134.800,276.777 133.433,276.847 131.201 C 276.924 128.793,276.802 127.442,276.481 127.121 C 276.117 126.757,276.000 126.755,276.000 127.111 M200.667 127.867 C 200.271 128.262,200.341 128.680,200.900 129.271 C 202.120 130.561,204.800 134.317,204.800 134.737 C 204.800 135.341,205.709 135.331,206.320 134.720 C 206.951 134.089,206.930 133.600,206.272 133.600 C 205.470 133.600,203.988 131.698,204.252 131.008 C 204.394 130.638,204.261 130.400,203.913 130.400 C 203.235 130.400,201.600 128.755,201.600 128.074 C 201.600 127.557,201.090 127.443,200.667 127.867 M283.426 140.038 C 281.900 141.117,280.415 142.000,280.126 142.000 C 279.316 142.000,279.525 142.878,280.650 144.200 C 281.400 145.082,281.551 145.159,281.217 144.492 C 280.967 143.992,280.880 143.394,281.023 143.162 C 281.545 142.319,286.968 139.103,287.116 139.549 C 287.199 139.797,287.436 140.000,287.643 140.000 C 287.849 140.000,287.724 139.550,287.363 139.000 C 286.544 137.750,286.732 137.700,283.426 140.038 M288.182 142.451 C 288.182 144.411,286.235 146.400,284.315 146.400 C 283.702 146.400,283.200 146.580,283.200 146.800 C 283.200 147.550,286.250 147.233,287.349 146.369 C 288.883 145.162,289.297 144.157,288.995 142.370 C 288.647 140.313,288.182 140.360,288.182 142.451 M295.764 157.943 C 295.187 158.436,291.456 159.247,289.649 159.272 C 288.367 159.289,288.000 159.447,288.000 159.980 C 288.000 161.068,288.358 161.172,290.135 160.601 C 292.963 159.691,295.537 159.201,296.183 159.449 C 296.615 159.615,296.800 159.440,296.800 158.866 C 296.800 157.931,296.300 157.485,295.764 157.943 M295.690 163.784 C 294.601 164.920,292.022 165.454,290.796 164.798 C 289.456 164.080,289.415 164.614,290.739 165.556 C 292.674 166.934,295.398 166.472,296.403 164.595 C 297.147 163.205,296.716 162.714,295.690 163.784 M291.800 172.464 C 290.367 173.252,289.618 174.545,289.609 176.245 C 289.583 181.066,297.075 182.024,298.248 177.349 C 299.110 173.916,294.925 170.746,291.800 172.464 M296.700 174.099 C 298.151 174.802,297.985 177.600,296.438 178.514 C 294.269 179.795,290.465 179.123,290.337 177.436 C 290.059 173.779,292.933 172.272,296.700 174.099 M288.400 186.187 C 288.400 186.547,288.634 186.685,289.005 186.543 C 289.338 186.415,289.869 186.526,290.186 186.788 C 290.503 187.051,291.085 187.189,291.481 187.095 C 292.139 186.938,292.132 186.899,291.400 186.633 C 290.960 186.473,290.287 186.175,289.905 185.971 C 288.910 185.439,288.400 185.512,288.400 186.187 M292.600 187.600 C 292.736 187.820,293.117 188.000,293.447 188.000 C 293.777 188.000,293.936 187.820,293.800 187.600 C 293.664 187.380,293.283 187.200,292.953 187.200 C 292.623 187.200,292.464 187.380,292.600 187.600 M294.563 188.397 C 294.344 188.616,292.643 188.997,290.783 189.244 C 288.922 189.490,287.328 189.759,287.239 189.840 C 287.151 189.922,288.231 191.052,289.639 192.352 C 291.048 193.652,292.082 194.838,291.937 194.987 C 291.601 195.335,286.400 193.563,286.400 193.100 C 286.400 192.909,286.220 192.864,286.000 193.000 C 284.757 193.768,285.688 194.645,288.500 195.353 C 290.095 195.755,291.799 196.335,292.286 196.642 C 293.404 197.346,293.460 197.342,293.773 196.527 C 293.959 196.040,293.305 195.172,291.412 193.397 C 288.561 190.722,288.514 190.409,290.967 190.383 C 294.502 190.345,296.769 189.535,296.794 188.300 C 296.803 187.857,295.025 187.935,294.563 188.397 M281.200 201.400 C 280.519 202.390,280.150 203.200,280.381 203.200 C 280.611 203.200,280.806 203.065,280.813 202.900 C 280.868 201.589,281.947 201.137,283.389 201.822 C 285.062 202.615,285.209 203.933,283.700 204.595 C 282.580 205.086,282.564 205.446,283.636 206.019 C 284.353 206.403,284.450 206.363,284.318 205.733 C 284.181 205.079,285.328 203.600,285.972 203.600 C 286.561 203.600,288.000 204.894,288.000 205.423 C 288.000 206.245,288.522 206.136,289.113 205.191 C 289.547 204.496,289.512 204.340,288.871 204.091 C 287.374 203.509,283.234 200.587,283.217 200.100 C 283.184 199.131,282.425 199.620,281.200 201.400 M279.454 203.912 C 279.319 204.131,279.477 204.532,279.804 204.804 C 280.455 205.343,280.591 204.920,280.044 204.057 C 279.835 203.728,279.604 203.671,279.454 203.912 M286.100 207.865 C 285.404 208.146,285.473 208.800,286.200 208.800 C 286.530 208.800,286.800 208.530,286.800 208.200 C 286.800 207.870,286.755 207.614,286.700 207.632 C 286.645 207.649,286.375 207.754,286.100 207.865 " stroke="none" fill="#295a7f" fill-rule="evenodd"></path><path id="path3" d="M180.312 131.625 C 179.673 131.998,179.090 133.108,175.442 140.900 C 173.234 145.617,172.574 147.151,170.574 152.200 C 169.528 154.840,168.615 157.071,168.544 157.158 C 168.421 157.311,167.151 157.542,161.600 158.418 C 160.170 158.644,157.920 159.009,156.600 159.230 C 151.108 160.149,150.000 160.259,150.000 159.882 C 150.000 159.670,150.738 157.765,151.639 155.649 C 153.228 151.919,153.704 150.852,156.354 145.090 C 157.913 141.699,157.908 141.535,156.187 139.813 C 154.124 137.751,153.132 137.909,151.874 140.500 C 149.724 144.929,147.474 149.918,146.325 152.800 C 145.667 154.450,144.804 156.520,144.406 157.400 C 144.008 158.280,143.403 159.675,143.062 160.500 C 142.720 161.325,142.297 162.008,142.120 162.017 C 141.944 162.027,141.080 162.185,140.200 162.369 C 139.320 162.553,137.160 163.002,135.400 163.366 C 121.090 166.330,119.840 166.984,122.856 169.933 C 124.266 171.312,125.937 171.563,128.754 170.817 C 133.937 169.446,140.000 168.174,140.000 168.457 C 140.000 168.538,139.540 169.863,138.978 171.402 C 137.178 176.333,134.737 183.363,134.396 184.600 C 134.022 185.959,132.812 189.904,131.543 193.900 C 129.845 199.247,130.772 203.200,133.724 203.200 C 135.295 203.200,137.619 198.955,137.516 196.275 C 137.477 195.253,138.121 192.496,139.167 189.200 C 141.431 182.073,141.732 181.180,143.174 177.300 C 143.848 175.485,144.946 172.515,145.614 170.701 C 147.092 166.680,147.123 166.652,150.600 166.038 C 152.140 165.765,154.390 165.365,155.600 165.148 C 156.810 164.931,158.700 164.595,159.800 164.402 C 160.900 164.209,162.659 163.883,163.709 163.679 C 166.234 163.187,166.230 162.897,163.807 170.204 C 158.548 186.060,158.539 186.112,160.613 188.187 C 163.248 190.821,163.787 190.284,166.016 182.800 C 167.985 176.194,168.070 175.920,168.856 173.700 C 172.381 163.748,172.940 162.451,173.803 162.235 C 174.570 162.043,176.430 161.805,185.220 160.774 C 191.528 160.035,192.668 158.999,190.131 156.310 L 189.000 155.112 185.200 155.375 C 183.110 155.520,180.140 155.781,178.600 155.953 C 177.060 156.126,175.729 156.212,175.642 156.143 C 175.370 155.927,179.285 147.011,184.181 136.697 C 185.069 134.826,184.608 133.427,182.667 132.100 C 181.169 131.076,181.233 131.089,180.312 131.625 M182.878 133.075 C 184.354 134.488,184.298 135.268,182.448 139.052 C 180.703 142.624,176.729 151.534,175.567 154.484 C 174.560 157.039,174.708 157.084,181.350 156.257 C 184.251 155.896,187.060 155.600,187.591 155.600 C 189.332 155.600,191.662 158.620,190.483 159.349 C 190.170 159.542,174.522 161.600,173.361 161.600 C 173.030 161.600,172.477 162.275,172.131 163.100 C 171.074 165.624,167.963 174.425,167.005 177.600 C 163.194 190.234,163.221 190.191,160.730 187.525 C 159.230 185.919,159.166 186.271,163.218 173.844 C 166.520 163.716,166.742 162.800,165.889 162.800 C 165.248 162.800,148.068 165.924,147.209 166.197 C 145.931 166.603,136.589 193.931,136.940 196.236 C 137.267 198.374,135.067 202.400,133.574 202.400 C 129.635 202.400,130.585 196.949,138.439 174.506 C 139.812 170.581,140.433 168.273,140.184 168.024 C 139.935 167.775,137.376 168.199,132.999 169.215 C 124.813 171.115,124.778 171.117,123.231 169.569 C 120.754 167.092,120.974 167.003,138.749 163.253 C 143.325 162.287,142.608 163.092,145.936 155.200 C 148.646 148.773,152.285 140.707,152.928 139.700 C 153.754 138.406,156.800 140.199,156.800 141.980 C 156.800 142.429,156.154 144.192,155.365 145.898 C 152.853 151.326,149.200 159.893,149.200 160.355 C 149.200 160.992,149.840 160.937,158.037 159.595 C 162.087 158.932,166.082 158.285,166.916 158.157 C 168.799 157.868,168.947 157.640,171.928 150.400 C 174.419 144.351,179.441 133.365,180.111 132.500 C 180.720 131.713,181.661 131.909,182.878 133.075 M206.600 159.847 C 197.206 166.192,179.444 188.353,170.409 205.000 C 168.672 208.201,168.672 208.202,164.999 209.529 C 163.240 210.166,160.900 211.092,159.800 211.589 C 158.700 212.085,156.990 212.850,156.000 213.289 C 153.726 214.296,146.193 218.075,144.375 219.120 C 143.619 219.554,141.509 220.763,139.687 221.805 C 135.358 224.281,134.890 225.326,137.185 227.391 C 138.682 228.738,140.578 228.383,144.400 226.040 C 147.647 224.050,163.470 216.000,164.135 216.000 C 164.530 216.000,164.166 217.194,162.976 219.807 C 162.473 220.911,161.674 222.801,161.200 224.007 C 160.726 225.213,160.101 226.740,159.813 227.400 C 158.620 230.126,157.567 233.171,153.974 244.287 C 153.337 246.258,155.269 248.800,157.405 248.800 C 158.722 248.800,159.027 248.248,160.959 242.358 C 164.043 232.954,166.975 225.775,170.985 217.807 L 173.800 212.214 176.000 211.461 C 182.215 209.335,195.108 206.000,197.116 206.000 C 197.762 206.000,197.743 206.261,196.660 212.400 C 194.659 223.737,195.467 228.642,199.681 230.733 C 203.085 232.422,204.571 230.453,201.941 227.739 L 200.681 226.439 201.156 222.720 C 202.345 213.408,203.891 205.175,204.581 204.485 C 205.044 204.022,212.935 203.558,216.477 203.785 C 220.984 204.074,221.671 203.656,220.537 201.316 C 219.595 199.370,218.161 198.998,211.686 199.019 L 205.972 199.037 206.223 197.819 C 206.361 197.148,206.923 195.070,207.472 193.200 C 208.021 191.330,208.635 189.215,208.835 188.500 C 209.753 185.230,210.011 184.344,211.200 180.400 C 211.896 178.090,212.631 175.615,212.833 174.900 C 213.035 174.185,213.392 172.925,213.626 172.100 C 216.744 161.114,213.388 155.262,206.600 159.847 M211.613 159.007 C 215.284 160.905,215.211 165.022,211.274 178.200 C 207.395 191.182,205.600 197.640,205.600 198.615 L 205.600 199.720 209.100 199.483 C 216.054 199.013,220.400 200.162,220.400 202.470 C 220.400 203.144,219.944 203.200,214.455 203.200 C 208.269 203.200,204.452 203.668,203.945 204.489 C 203.138 205.795,201.042 217.695,200.571 223.651 L 200.298 227.103 201.549 228.218 C 203.886 230.300,202.515 231.707,199.612 230.206 C 195.695 228.180,195.170 222.767,197.657 210.054 C 198.140 207.589,198.322 205.762,198.108 205.548 C 197.427 204.867,179.574 209.296,174.567 211.388 C 172.212 212.372,164.771 228.605,160.402 242.287 C 158.565 248.040,158.203 248.611,156.749 248.055 C 154.704 247.273,154.198 246.205,154.775 243.888 C 156.106 238.539,160.608 226.228,163.604 219.742 C 165.270 216.137,165.505 215.200,164.747 215.200 C 163.944 215.200,149.956 222.172,144.823 225.131 C 142.085 226.709,139.727 228.000,139.582 228.000 C 138.829 228.000,136.583 226.057,136.476 225.313 C 136.245 223.716,151.651 215.408,163.748 210.606 L 169.000 208.521 171.746 203.760 C 182.628 184.891,198.775 165.301,208.400 159.288 C 210.076 158.241,210.124 158.237,211.613 159.007 M205.298 168.220 C 196.684 176.082,175.790 203.923,177.340 205.473 C 177.457 205.591,179.949 205.043,182.877 204.256 C 188.096 202.853,194.733 201.358,197.694 200.918 C 199.879 200.594,199.120 202.729,207.046 174.600 C 209.999 164.116,209.958 163.966,205.298 168.220 M208.606 167.100 C 208.451 167.485,208.072 168.745,207.763 169.900 C 207.109 172.338,206.081 176.075,205.588 177.800 C 205.399 178.460,205.070 179.630,204.855 180.400 C 204.641 181.170,203.900 183.690,203.209 186.000 C 201.992 190.066,201.422 192.081,200.237 196.500 C 199.366 199.750,199.305 199.825,197.085 200.348 C 192.609 201.403,191.707 201.605,189.000 202.160 C 187.460 202.476,184.850 203.112,183.200 203.573 C 178.180 204.976,177.829 205.024,178.120 204.265 C 178.623 202.952,186.142 191.858,189.899 186.883 C 198.496 175.501,210.194 163.129,208.606 167.100 M251.200 198.000 C 250.650 198.176,249.528 198.338,248.706 198.360 C 239.540 198.605,214.870 209.231,214.478 213.103 C 214.379 214.082,214.638 214.538,215.869 215.553 C 217.849 217.184,217.982 217.165,221.982 214.657 C 238.717 204.162,262.223 199.484,268.222 205.454 C 276.842 214.033,257.968 237.982,231.834 251.626 C 225.613 254.874,225.697 254.872,226.582 251.730 C 229.372 241.820,234.937 231.631,242.562 222.470 C 246.409 217.849,246.572 217.292,244.640 215.360 C 242.858 213.578,241.977 213.644,240.044 215.707 C 230.921 225.441,223.505 239.345,220.474 252.400 C 220.244 253.390,219.851 255.015,219.601 256.010 C 218.643 259.822,218.858 262.608,220.200 263.777 C 221.967 265.316,223.754 265.078,223.927 263.280 C 224.020 262.313,224.314 261.861,225.028 261.589 C 235.936 257.442,249.855 248.790,259.366 240.244 C 279.026 222.579,280.208 202.128,261.800 198.147 C 259.175 197.579,252.790 197.491,251.200 198.000 M263.675 199.190 C 288.962 207.001,267.168 243.344,227.200 260.017 C 224.421 261.176,223.750 261.750,223.456 263.220 C 222.933 265.833,218.994 262.968,219.436 260.298 C 221.974 244.972,227.475 232.258,236.612 220.600 C 240.797 215.261,242.140 214.137,243.373 214.945 C 246.175 216.781,246.051 217.842,242.595 221.590 C 235.146 229.670,225.600 247.894,225.600 254.036 C 225.600 255.536,225.192 255.651,231.737 252.304 C 256.776 239.498,275.698 216.676,269.796 206.400 C 265.279 198.537,239.654 202.716,221.496 214.278 C 218.302 216.312,217.528 216.389,215.969 214.831 C 214.265 213.126,214.464 212.693,217.989 210.431 C 232.419 201.175,253.392 196.014,263.675 199.190 " stroke="none" fill="#fc9797" fill-rule="evenodd"></path><path id="path4" d="M234.667 113.900 C 234.567 114.065,234.099 115.505,233.626 117.100 C 232.587 120.603,232.844 120.594,230.828 117.200 C 229.135 114.350,228.297 113.845,226.818 114.780 C 226.330 115.089,226.320 115.304,226.757 116.120 C 227.051 116.669,227.304 118.595,227.339 120.544 L 227.400 123.996 228.633 123.998 C 230.224 124.001,230.530 123.661,229.865 122.632 C 229.255 121.690,228.703 118.800,229.132 118.800 C 229.286 118.800,230.005 119.790,230.729 121.000 C 232.506 123.971,233.268 123.922,234.141 120.781 C 234.975 117.783,235.770 117.940,235.512 121.052 L 235.334 123.200 236.618 123.200 C 238.255 123.200,239.133 122.276,238.294 121.437 C 237.647 120.790,236.998 115.666,237.402 114.393 C 237.658 113.586,235.130 113.130,234.667 113.900 M244.101 114.615 C 244.374 116.042,243.657 121.356,243.169 121.533 C 242.034 121.944,242.897 123.105,244.500 123.325 C 245.435 123.453,246.928 123.675,247.818 123.817 C 249.307 124.055,249.477 123.988,249.938 122.977 C 250.597 121.531,249.943 120.766,248.875 121.732 C 247.665 122.827,245.600 122.222,245.600 120.774 C 245.600 120.154,245.749 119.555,245.931 119.443 C 246.504 119.088,248.000 119.669,248.000 120.247 C 248.000 121.306,248.780 120.791,249.130 119.500 C 249.524 118.044,248.984 116.856,248.257 117.583 C 247.113 118.727,245.787 117.814,246.368 116.284 C 246.781 115.199,248.663 115.178,249.076 116.253 C 249.571 117.545,250.904 116.686,250.544 115.307 C 250.322 114.459,249.973 114.345,245.843 113.766 L 243.886 113.492 244.101 114.615 M236.747 116.145 C 236.785 117.325,237.057 119.215,237.350 120.345 C 237.879 122.387,237.877 122.400,236.941 122.400 C 236.050 122.400,236.000 122.263,236.000 119.814 C 236.000 117.638,235.873 117.160,235.200 116.800 C 234.227 116.279,234.188 115.697,235.062 114.731 C 236.209 113.464,236.672 113.852,236.747 116.145 M250.050 115.267 C 250.504 115.983,250.485 116.400,250.000 116.400 C 249.780 116.400,249.600 116.150,249.600 115.844 C 249.600 115.183,247.112 114.794,246.189 115.310 C 245.777 115.541,245.570 116.224,245.578 117.329 C 245.585 118.248,245.483 119.765,245.353 120.700 C 245.128 122.317,245.166 122.400,246.134 122.400 C 246.695 122.400,247.264 122.580,247.400 122.800 C 247.713 123.306,245.975 123.323,244.668 122.826 L 243.683 122.451 244.241 119.526 C 244.548 117.917,244.799 116.080,244.800 115.444 L 244.800 114.289 247.256 114.512 C 248.646 114.638,249.859 114.966,250.050 115.267 M230.694 117.900 C 231.767 119.687,232.533 120.560,232.958 120.482 C 233.697 120.347,233.781 120.915,233.186 122.026 C 232.757 122.827,232.000 123.083,232.000 122.427 C 232.000 121.307,228.880 117.083,228.153 117.219 C 227.806 117.284,227.214 116.334,227.206 115.700 C 227.186 114.089,229.149 115.327,230.694 117.900 M215.708 118.193 C 214.997 118.502,214.053 119.350,213.609 120.077 C 211.098 124.197,215.351 129.085,219.665 127.037 C 225.261 124.382,221.388 115.724,215.708 118.193 M248.687 119.446 C 248.586 119.547,247.995 119.398,247.373 119.115 L 246.244 118.600 247.422 118.390 C 248.490 118.200,249.277 118.857,248.687 119.446 M220.602 119.602 C 222.441 121.522,221.901 126.400,219.849 126.400 C 219.644 126.400,219.774 126.071,220.138 125.669 C 222.227 123.361,219.190 118.114,216.297 119.033 C 215.768 119.200,215.592 119.136,215.774 118.843 C 216.379 117.863,219.389 118.336,220.602 119.602 M228.899 121.700 C 229.067 123.271,228.989 123.600,228.451 123.601 C 227.905 123.601,227.822 123.203,227.940 121.121 C 228.094 118.373,228.576 118.663,228.899 121.700 M216.127 119.631 C 219.024 118.540,221.981 124.057,219.242 125.446 C 217.287 126.437,215.018 124.363,215.018 121.583 C 215.018 120.712,214.879 120.000,214.709 120.000 C 214.180 120.000,214.370 122.782,214.980 123.960 C 215.664 125.283,217.234 126.400,218.410 126.400 C 218.870 126.400,219.136 126.580,219.000 126.800 C 217.778 128.778,213.546 125.616,213.502 122.692 C 213.475 120.914,214.746 118.439,215.116 119.549 C 215.200 119.801,215.592 119.832,216.127 119.631 M263.582 122.815 C 261.993 124.143,260.356 125.409,259.946 125.629 C 258.980 126.146,258.993 127.061,259.974 127.586 C 261.132 128.206,261.600 128.091,261.600 127.187 C 261.600 126.146,262.581 125.772,263.826 126.339 C 264.880 126.819,265.100 127.935,264.300 128.748 C 263.899 129.156,263.991 129.413,264.765 130.045 C 266.347 131.338,266.924 130.904,267.075 128.308 C 267.149 127.047,267.356 124.938,267.537 123.620 C 267.844 121.375,267.607 120.400,266.756 120.400 C 266.600 120.400,265.172 121.487,263.582 122.815 M267.200 122.079 C 267.200 123.872,266.286 130.001,266.020 129.994 C 265.161 129.970,264.683 129.223,265.159 128.650 C 265.691 128.008,265.416 126.400,264.773 126.400 C 264.568 126.400,264.400 126.220,264.400 126.000 C 264.400 125.780,264.603 125.645,264.850 125.700 C 265.548 125.855,266.195 123.603,265.686 122.789 C 265.365 122.275,265.421 121.950,265.917 121.455 C 266.880 120.492,267.200 120.647,267.200 122.079 M249.600 122.600 C 249.600 122.930,249.308 123.200,248.951 123.200 C 248.420 123.200,248.392 123.091,248.800 122.600 C 249.074 122.270,249.366 122.000,249.449 122.000 C 249.532 122.000,249.600 122.270,249.600 122.600 M204.443 124.554 L 203.547 125.508 204.774 126.381 C 206.326 127.486,206.319 128.118,204.744 129.240 C 203.390 130.204,202.400 129.676,202.400 127.990 C 202.400 126.633,201.325 126.732,199.831 128.226 C 198.998 129.059,199.032 129.600,199.917 129.600 C 200.769 129.600,204.400 134.183,204.400 135.259 C 204.400 136.210,205.149 136.183,206.343 135.188 C 207.316 134.377,207.278 133.200,206.280 133.200 C 205.021 133.200,204.549 131.194,205.614 130.375 C 207.180 129.172,208.800 130.044,208.800 132.089 C 208.800 133.028,209.166 132.983,210.550 131.876 L 211.700 130.956 209.681 128.883 C 208.571 127.744,207.344 126.089,206.954 125.206 C 206.136 123.350,205.684 123.233,204.443 124.554 M263.458 124.600 C 263.504 125.398,263.326 125.600,262.580 125.600 C 262.066 125.600,261.367 125.998,261.026 126.484 C 260.542 127.175,260.302 127.262,259.924 126.884 C 259.654 126.614,259.618 126.400,259.842 126.400 C 260.063 126.400,260.931 125.770,261.772 125.000 C 263.589 123.335,263.387 123.383,263.458 124.600 M265.594 123.900 C 265.575 124.801,264.821 125.381,264.320 124.880 C 263.902 124.462,263.918 124.296,264.403 123.989 C 265.128 123.532,265.602 123.496,265.594 123.900 M206.296 125.300 C 206.742 126.245,208.372 128.327,209.908 129.914 C 210.807 130.844,210.793 131.602,209.876 131.597 C 209.614 131.596,209.092 131.053,208.715 130.391 C 207.772 128.733,206.952 128.518,205.780 129.619 C 205.241 130.125,204.800 130.371,204.800 130.166 C 204.800 129.961,205.160 129.568,205.600 129.293 C 206.696 128.609,206.603 127.367,205.364 126.128 C 204.554 125.318,204.445 125.018,204.864 124.752 C 205.660 124.247,205.830 124.313,206.296 125.300 M275.184 127.056 C 274.621 128.556,271.229 132.000,270.315 132.000 C 269.351 132.000,269.415 132.541,270.534 133.842 C 271.509 134.975,272.400 134.886,272.400 133.655 C 272.400 133.271,273.045 132.337,273.833 131.578 L 275.265 130.200 274.985 133.847 C 274.606 138.779,274.985 138.942,278.369 135.309 C 279.816 133.756,281.342 132.371,281.760 132.232 C 282.483 131.991,282.475 131.931,281.590 130.990 C 280.380 129.702,280.121 129.740,279.461 131.300 C 279.158 132.015,278.510 132.957,278.020 133.393 L 277.131 134.187 277.265 130.652 C 277.421 126.573,276.174 124.419,275.184 127.056 M276.847 131.201 C 276.777 133.433,276.887 134.800,277.138 134.800 C 277.672 134.800,280.000 131.960,280.000 131.309 C 280.000 130.730,280.089 130.706,280.967 131.043 C 281.719 131.331,281.813 132.002,281.100 131.995 C 280.825 131.993,279.393 133.298,277.917 134.895 L 275.235 137.800 275.220 136.200 C 275.211 135.320,275.381 133.526,275.595 132.213 C 275.823 130.825,275.838 129.678,275.632 129.472 C 275.174 129.014,272.000 132.358,272.000 133.298 C 272.000 134.078,271.567 134.207,270.965 133.605 C 270.705 133.345,271.498 132.248,273.285 130.396 C 274.778 128.849,276.000 127.370,276.000 127.111 C 276.000 126.755,276.117 126.757,276.481 127.121 C 276.802 127.442,276.924 128.793,276.847 131.201 M201.600 128.074 C 201.600 128.755,203.235 130.400,203.913 130.400 C 204.261 130.400,204.394 130.638,204.252 131.008 C 203.988 131.698,205.470 133.600,206.272 133.600 C 206.930 133.600,206.951 134.089,206.320 134.720 C 205.709 135.331,204.800 135.341,204.800 134.737 C 204.800 134.317,202.120 130.561,200.900 129.271 C 200.341 128.680,200.271 128.262,200.667 127.867 C 201.090 127.443,201.600 127.557,201.600 128.074 M285.495 137.557 C 285.266 138.435,280.588 141.600,279.520 141.600 C 278.137 141.600,279.632 144.546,282.045 146.576 C 284.844 148.931,289.600 146.915,289.600 143.374 C 289.600 140.437,286.056 135.414,285.495 137.557 M287.344 138.970 C 287.700 139.514,287.807 139.998,287.587 140.071 C 287.342 140.153,287.378 140.687,287.682 141.492 C 288.563 143.827,285.376 146.760,283.262 145.559 C 280.801 144.160,281.605 142.494,285.695 140.521 C 286.969 139.907,287.669 139.200,287.004 139.200 C 286.631 139.200,281.282 142.743,281.023 143.162 C 280.880 143.394,280.967 143.992,281.217 144.492 C 281.551 145.159,281.400 145.082,280.650 144.200 C 279.525 142.878,279.316 142.000,280.126 142.000 C 280.415 142.000,281.900 141.117,283.426 140.038 C 286.726 137.705,286.547 137.754,287.344 138.970 M288.995 142.370 C 289.297 144.157,288.883 145.162,287.349 146.369 C 286.250 147.233,283.200 147.550,283.200 146.800 C 283.200 146.580,283.702 146.400,284.315 146.400 C 286.235 146.400,288.182 144.411,288.182 142.451 C 288.182 140.360,288.647 140.313,288.995 142.370 M295.627 157.368 C 295.118 157.980,290.433 158.906,288.800 158.716 C 287.616 158.579,287.492 161.086,288.557 163.634 C 290.606 168.539,297.600 167.407,297.600 162.171 C 297.600 158.482,296.640 156.146,295.627 157.368 M296.800 158.866 C 296.800 159.440,296.615 159.615,296.183 159.449 C 295.537 159.201,292.963 159.691,290.135 160.601 C 288.358 161.172,288.000 161.068,288.000 159.980 C 288.000 159.447,288.367 159.289,289.649 159.272 C 291.456 159.247,295.187 158.436,295.764 157.943 C 296.300 157.485,296.800 157.931,296.800 158.866 M296.000 161.226 C 296.000 164.965,290.646 166.114,289.756 162.566 C 289.432 161.275,289.764 160.966,292.000 160.478 C 295.417 159.733,296.000 159.842,296.000 161.226 M296.403 164.595 C 295.398 166.472,292.674 166.934,290.739 165.556 C 289.415 164.614,289.456 164.080,290.796 164.798 C 292.022 165.454,294.601 164.920,295.690 163.784 C 296.716 162.714,297.147 163.205,296.403 164.595 M290.834 172.633 C 286.888 175.953,290.358 182.141,295.387 180.753 C 298.372 179.928,299.660 176.823,298.193 173.987 C 296.907 171.500,293.028 170.786,290.834 172.633 M296.735 173.139 C 298.076 174.392,298.615 175.890,298.248 177.349 C 297.075 182.024,289.583 181.066,289.609 176.245 C 289.629 172.460,293.978 170.564,296.735 173.139 M292.742 173.493 C 290.221 173.855,289.240 177.743,291.419 178.736 C 294.376 180.083,297.600 178.751,297.600 176.181 C 297.600 174.069,295.771 173.057,292.742 173.493 M296.300 174.501 C 297.821 175.235,297.553 177.445,295.844 178.259 C 292.832 179.696,289.386 177.548,291.075 175.287 C 292.262 173.698,294.071 173.425,296.300 174.501 M288.530 184.711 C 287.279 185.507,287.742 187.373,289.200 187.413 C 289.970 187.434,291.122 187.601,291.760 187.784 C 292.597 188.024,292.841 187.989,292.636 187.658 C 292.338 187.175,293.273 187.006,293.727 187.461 C 294.229 187.963,291.891 188.800,289.987 188.800 C 286.224 188.800,286.001 189.362,288.685 192.086 C 290.615 194.046,290.473 194.402,288.092 193.572 C 287.417 193.337,286.765 192.887,286.645 192.572 C 286.282 191.627,285.790 191.919,285.255 193.398 C 284.700 194.932,284.911 195.686,285.799 195.345 C 286.544 195.059,292.689 197.104,292.950 197.724 C 293.214 198.353,294.400 196.900,294.400 195.947 C 294.400 195.561,293.410 194.391,292.200 193.347 C 289.397 190.927,289.394 190.937,293.229 190.597 C 296.079 190.345,296.507 190.203,296.881 189.381 C 297.411 188.219,297.007 187.035,296.189 187.349 C 295.403 187.651,290.346 185.815,289.762 185.016 C 289.251 184.317,289.179 184.299,288.530 184.711 M289.905 185.971 C 290.287 186.175,290.960 186.473,291.400 186.633 C 292.132 186.899,292.139 186.938,291.481 187.095 C 291.085 187.189,290.503 187.051,290.186 186.788 C 289.869 186.526,289.338 186.415,289.005 186.543 C 288.634 186.685,288.400 186.547,288.400 186.187 C 288.400 185.512,288.910 185.439,289.905 185.971 M296.794 188.300 C 296.769 189.535,294.502 190.345,290.967 190.383 C 288.514 190.409,288.561 190.722,291.412 193.397 C 293.305 195.172,293.959 196.040,293.773 196.527 C 293.460 197.342,293.404 197.346,292.286 196.642 C 291.799 196.335,290.095 195.755,288.500 195.353 C 285.688 194.645,284.757 193.768,286.000 193.000 C 286.220 192.864,286.400 192.909,286.400 193.100 C 286.400 193.563,291.601 195.335,291.937 194.987 C 292.082 194.838,291.048 193.652,289.639 192.352 C 288.231 191.052,287.151 189.922,287.239 189.840 C 287.328 189.759,288.922 189.490,290.783 189.244 C 292.643 188.997,294.344 188.616,294.563 188.397 C 295.025 187.935,296.803 187.857,296.794 188.300 M281.089 200.700 C 278.753 203.918,278.597 204.375,279.519 205.297 C 280.481 206.259,281.290 205.899,280.977 204.650 C 280.643 203.319,282.100 201.647,283.075 202.243 C 284.213 202.938,284.192 203.947,283.029 204.389 C 281.648 204.914,281.732 205.369,283.400 206.400 C 284.205 206.897,284.800 207.588,284.800 208.025 C 284.800 208.690,286.575 209.613,286.959 209.148 C 289.233 206.394,290.429 203.600,289.336 203.600 C 288.398 203.600,283.669 200.343,283.383 199.500 C 283.016 198.417,282.581 198.645,281.089 200.700 M283.217 200.100 C 283.234 200.587,287.374 203.509,288.871 204.091 C 289.512 204.340,289.547 204.496,289.113 205.191 C 288.522 206.136,288.000 206.245,288.000 205.423 C 288.000 204.894,286.561 203.600,285.972 203.600 C 285.328 203.600,284.181 205.079,284.318 205.733 C 284.450 206.363,284.353 206.403,283.636 206.019 C 282.564 205.446,282.580 205.086,283.700 204.595 C 285.209 203.933,285.062 202.615,283.389 201.822 C 281.947 201.137,280.868 201.589,280.813 202.900 C 280.806 203.065,280.611 203.200,280.381 203.200 C 280.150 203.200,280.519 202.390,281.200 201.400 C 282.425 199.620,283.184 199.131,283.217 200.100 M280.394 204.949 C 280.397 205.141,280.132 205.076,279.804 204.804 C 279.477 204.532,279.319 204.131,279.454 203.912 C 279.702 203.511,280.382 204.261,280.394 204.949 M287.200 205.000 C 287.935 205.885,286.442 207.744,285.336 207.320 C 284.787 207.109,284.587 205.146,285.067 204.667 C 285.534 204.200,286.685 204.379,287.200 205.000 M286.800 208.200 C 286.800 208.530,286.530 208.800,286.200 208.800 C 285.159 208.800,285.496 208.012,286.700 207.632 C 286.755 207.614,286.800 207.870,286.800 208.200 " stroke="none" fill="#92a9bb" fill-rule="evenodd"></path></g></svg>